<svg width="18" height="15" viewBox="0 0 18 15" fill="none" xmlns="http://www.w3.org/2000/svg">
<path d="M15.8052 1.39307C14.9603 0.494751 13.8009 0 12.5404 0C11.5983 0 10.7354 0.291992 9.97579 0.867798C9.59249 1.15845 9.24518 1.51404 8.93896 1.92908C8.63287 1.51416 8.28544 1.15845 7.90202 0.867798C7.14252 0.291992 6.27967 0 5.33749 0C4.07702 0 2.91753 0.494751 2.07261 1.39307C1.23778 2.28088 0.777893 3.49377 0.777893 4.80847C0.777893 6.16162 1.29232 7.40027 2.39676 8.70667C3.38476 9.87524 4.80476 11.0615 6.44915 12.4352C7.01065 12.9043 7.64711 13.436 8.30798 14.0024C8.48257 14.1523 8.7066 14.2349 8.93896 14.2349C9.17121 14.2349 9.39536 14.1523 9.5697 14.0027C10.2306 13.4362 10.8674 12.9042 11.4292 12.4348C13.0733 11.0614 14.4933 9.87524 15.4813 8.70654C16.5857 7.40027 17.1 6.16162 17.1 4.80835C17.1 3.49377 16.6402 2.28088 15.8052 1.39307Z" fill="black"/>
</svg>
