<svg width="97" height="64" viewBox="0 0 97 64" fill="none" xmlns="http://www.w3.org/2000/svg">
<path d="M36.148 12V1.979H42.909V3.162H37.475V6.262H42.175V7.445H37.475V12H36.148ZM49.212 11.1C48.8231 11.4461 48.3781 11.7234 47.896 11.92C47.462 12.0817 47.0021 12.1627 46.539 12.159C45.8749 12.2048 45.218 11.998 44.7 11.58C44.4905 11.3928 44.3244 11.1621 44.2133 10.9041C44.1023 10.646 44.0489 10.3668 44.057 10.086C44.0533 9.74589 44.1369 9.4105 44.3 9.112C44.4517 8.82701 44.6699 8.58279 44.936 8.4C45.2072 8.21932 45.5062 8.0842 45.821 8C46.1814 7.91537 46.5468 7.85358 46.915 7.815C47.6586 7.74685 48.3936 7.60482 49.109 7.391C49.1137 7.22234 49.116 7.11534 49.116 7.07C49.1362 6.87868 49.1156 6.68524 49.0554 6.5025C48.9953 6.31976 48.8969 6.15189 48.767 6.01C48.367 5.70457 47.8689 5.55623 47.367 5.593C46.9189 5.55802 46.471 5.66283 46.085 5.893C45.7639 6.17148 45.5479 6.55159 45.473 6.97L44.273 6.806C44.3545 6.35396 44.5393 5.92685 44.813 5.558C45.1001 5.21914 45.4768 4.9679 45.9 4.833C46.4301 4.65323 46.9873 4.56661 47.547 4.577C48.0596 4.56056 48.5711 4.6347 49.058 4.796C49.3854 4.90242 49.6797 5.09192 49.912 5.346C50.1051 5.59014 50.2365 5.87726 50.295 6.183C50.3467 6.559 50.3675 6.93861 50.357 7.318V8.959C50.3382 9.68328 50.3646 10.408 50.436 11.129C50.4883 11.4346 50.5921 11.7291 50.743 12H49.458C49.3226 11.7172 49.2393 11.4123 49.212 11.1ZM49.112 8.352C48.462 8.5833 47.7876 8.73932 47.102 8.817C46.7359 8.85622 46.3757 8.9388 46.029 9.063C45.8309 9.14476 45.662 9.28411 45.544 9.463C45.4307 9.63655 45.3712 9.83973 45.373 10.047C45.3703 10.2028 45.4024 10.3573 45.4669 10.4991C45.5314 10.641 45.6268 10.7667 45.746 10.867C46.0568 11.1063 46.4447 11.223 46.836 11.195C47.2768 11.2045 47.7124 11.0991 48.1 10.889C48.4536 10.6977 48.7381 10.4 48.913 10.038C49.0658 9.64674 49.134 9.22753 49.113 8.808L49.112 8.352ZM57 9.341L58.21 9.498C58.1194 10.2526 57.7581 10.9487 57.193 11.457C56.6353 11.9337 55.9203 12.186 55.187 12.165C54.7405 12.1842 54.2951 12.1071 53.881 11.9391C53.467 11.771 53.0938 11.5159 52.787 11.191C52.1394 10.4108 51.8165 9.4116 51.885 8.4C51.8698 7.69429 52.0027 6.99323 52.275 6.342C52.5103 5.77996 52.9276 5.31331 53.46 5.017C53.9901 4.72323 54.587 4.57133 55.193 4.576C55.8879 4.54658 56.5716 4.75858 57.128 5.176C57.6472 5.6051 57.9903 6.2102 58.092 6.876L56.892 7.061C56.8159 6.6392 56.6055 6.25332 56.292 5.961C55.9993 5.71373 55.6261 5.58244 55.243 5.592C54.9573 5.58302 54.6732 5.63829 54.4117 5.75373C54.1502 5.86917 53.9179 6.04184 53.732 6.259C53.2937 6.87056 53.0878 7.61829 53.151 8.368C53.0871 9.12017 53.2853 9.8713 53.712 10.494C53.8891 10.7088 54.113 10.8803 54.3666 10.9952C54.6202 11.1101 54.8967 11.1655 55.175 11.157C55.6206 11.171 56.0542 11.0119 56.385 10.713C56.7444 10.3418 56.9621 9.85626 57 9.341ZM64.232 9.662L65.503 9.819C65.3392 10.5058 64.9458 11.1161 64.388 11.549C63.7826 11.9786 63.0517 12.1949 62.31 12.164C61.8437 12.1873 61.3777 12.1119 60.9424 11.9429C60.5071 11.7738 60.1124 11.5149 59.784 11.183C59.1241 10.4239 58.789 9.4359 58.851 8.432C58.7862 7.39778 59.1241 6.3786 59.794 5.588C60.1057 5.25409 60.4855 4.99096 60.9076 4.81638C61.3298 4.6418 61.7845 4.55983 62.241 4.576C62.6854 4.5609 63.1279 4.64158 63.5384 4.81257C63.9488 4.98356 64.3177 5.24086 64.62 5.567C65.2759 6.34281 65.6066 7.34208 65.543 8.356C65.543 8.42867 65.5407 8.538 65.536 8.684H60.122C60.1196 9.35676 60.3604 10.0077 60.8 10.517C60.994 10.7239 61.2295 10.8875 61.4911 10.9971C61.7527 11.1067 62.0345 11.1599 62.318 11.153C62.731 11.1651 63.1365 11.0411 63.472 10.8C63.8314 10.5038 64.0952 10.1078 64.23 9.662H64.232ZM60.19 7.673H64.244C64.2305 7.17901 64.0684 6.70055 63.779 6.3C63.5973 6.07167 63.3651 5.88861 63.1006 5.76524C62.8362 5.64186 62.5467 5.58154 62.255 5.589C61.9915 5.58258 61.7295 5.6295 61.4846 5.72694C61.2397 5.82437 61.017 5.97032 60.83 6.156C60.4323 6.56243 60.2036 7.10455 60.19 7.673ZM68.182 12H67.04V1.979H68.27V5.554C68.5005 5.24524 68.801 4.9956 69.1468 4.82558C69.4926 4.65556 69.8737 4.57002 70.259 4.576C70.6961 4.574 71.1286 4.66609 71.527 4.846C71.9117 5.0154 72.2495 5.2759 72.511 5.605C72.7808 5.95839 72.9841 6.35789 73.111 6.784C73.2596 7.26212 73.3335 7.76033 73.33 8.261C73.3971 9.30465 73.0674 10.3351 72.407 11.146C72.1353 11.466 71.7971 11.7228 71.4159 11.8987C71.0347 12.0745 70.6198 12.165 70.2 12.164C69.7995 12.1753 69.4029 12.0824 69.0491 11.8943C68.6954 11.7062 68.3966 11.4294 68.182 11.091V12ZM68.168 8.315C68.1217 8.96344 68.244 9.61281 68.523 10.2C68.6732 10.4869 68.8992 10.7271 69.1763 10.8946C69.4534 11.0621 69.7712 11.1504 70.095 11.15C70.3656 11.1477 70.632 11.0834 70.8738 10.9621C71.1157 10.8407 71.3265 10.6655 71.49 10.45C71.9244 9.84428 72.1324 9.10537 72.078 8.362C72.1376 7.61793 71.9384 6.8761 71.514 6.262C71.354 6.05185 71.1477 5.88144 70.9112 5.76402C70.6746 5.6466 70.4141 5.58534 70.15 5.585C69.8794 5.5873 69.613 5.65159 69.3712 5.77294C69.1293 5.89429 68.9186 6.06946 68.755 6.285C68.3258 6.87112 68.1178 7.59025 68.168 8.315ZM74.375 8.37C74.3307 7.81997 74.4086 7.26694 74.6031 6.75054C74.7975 6.23414 75.1038 5.76714 75.5 5.383C76.1351 4.84112 76.9484 4.55364 77.783 4.576C78.2367 4.55994 78.6888 4.63891 79.1102 4.80785C79.5316 4.97679 79.913 5.23197 80.23 5.557C80.5595 5.9236 80.813 6.35183 80.9761 6.81697C81.1392 7.28211 81.2085 7.77494 81.18 8.267C81.2154 9.0232 81.0715 9.77705 80.76 10.467C80.4861 10.9984 80.0586 11.4351 79.533 11.72C78.9966 12.0163 78.3928 12.1693 77.78 12.164C77.3237 12.1825 76.8686 12.105 76.4442 11.9365C76.0198 11.768 75.6354 11.5124 75.316 11.186C74.6433 10.4081 74.3051 9.39602 74.375 8.37ZM75.64 8.37C75.5831 9.11666 75.7992 9.85859 76.248 10.458C76.4353 10.6805 76.67 10.8584 76.9349 10.9784C77.1998 11.0985 77.4882 11.1578 77.779 11.152C78.0692 11.1568 78.3568 11.0964 78.6206 10.9753C78.8844 10.8541 79.1176 10.6753 79.303 10.452C79.7547 9.83948 79.9705 9.08472 79.911 8.326C79.9629 7.59517 79.7456 6.87061 79.3 6.289C79.114 6.06757 78.8809 5.89039 78.6178 5.77034C78.3547 5.65029 78.0682 5.59039 77.779 5.595C77.4886 5.58898 77.2004 5.64778 76.9356 5.76715C76.6708 5.88651 76.4359 6.06342 76.248 6.285C75.7987 6.88304 75.5826 7.62421 75.64 8.37ZM82.161 8.37C82.1162 7.82028 82.1934 7.26743 82.3872 6.75105C82.581 6.23466 82.8866 5.7675 83.282 5.383C83.9171 4.84112 84.7304 4.55364 85.565 4.576C86.0187 4.55994 86.4708 4.63891 86.8922 4.80785C87.3136 4.97679 87.695 5.23197 88.012 5.557C88.3415 5.9236 88.595 6.35183 88.7581 6.81697C88.9212 7.28211 88.9905 7.77494 88.962 8.267C88.9974 9.0232 88.8535 9.77705 88.542 10.467C88.2692 10.9979 87.8431 11.4344 87.319 11.72C86.7826 12.0163 86.1788 12.1693 85.566 12.164C85.1095 12.1829 84.6541 12.1057 84.2293 11.9374C83.8045 11.7691 83.4197 11.5134 83.1 11.187C82.4278 10.4086 82.0903 9.39609 82.161 8.37ZM83.426 8.37C83.3691 9.11666 83.5852 9.85859 84.034 10.458C84.2213 10.6805 84.456 10.8584 84.7209 10.9784C84.9858 11.0985 85.2742 11.1578 85.565 11.152C85.8552 11.1568 86.1428 11.0964 86.4066 10.9753C86.6704 10.8541 86.9036 10.6753 87.089 10.452C87.5411 9.84069 87.7579 9.08709 87.7 8.329C87.7526 7.5967 87.5349 6.87053 87.088 6.288C86.902 6.06657 86.6689 5.88939 86.4058 5.76934C86.1427 5.64929 85.8562 5.58939 85.567 5.594C85.2766 5.58798 84.9884 5.64679 84.7236 5.76615C84.4588 5.88551 84.2239 6.06242 84.036 6.284C83.5858 6.88203 83.3689 7.62363 83.426 8.37ZM90.412 12V1.979H91.642V7.694L94.555 4.74H96.148L93.372 7.434L96.428 12H94.91L92.51 8.288L91.642 9.122V12H90.412ZM38.63 36V27.161H35.328V25.979H43.271V27.162H39.956V36H38.63ZM45.042 36L42.82 28.74H44.092L45.247 32.93L45.678 34.489C45.696 34.4117 45.8213 33.9117 46.054 32.989L47.209 28.737H48.474L49.561 32.948L49.923 34.336L50.34 32.936L51.584 28.736H52.784L50.511 36H49.232L48.077 31.652L47.797 30.415L46.327 36H45.042ZM53.819 27.394V25.979H55.049V27.394H53.819ZM53.819 36V28.74H55.049V36H53.819ZM59.609 34.9L59.787 35.987C59.4816 36.0551 59.1699 36.0917 58.857 36.096C58.4982 36.1154 58.1405 36.0424 57.818 35.884C57.5882 35.7605 57.4054 35.5648 57.298 35.327C57.1675 34.8544 57.1168 34.3633 57.148 33.874V29.7H56.248V28.74H57.148V26.94L58.372 26.202V28.74H59.609V29.7H58.372V33.945C58.3575 34.1727 58.3795 34.4012 58.437 34.622C58.4804 34.7222 58.5547 34.806 58.649 34.861C58.7786 34.9275 58.9236 34.9582 59.069 34.95C59.2499 34.9456 59.4303 34.9289 59.609 34.9ZM63.499 34.9L63.677 35.987C63.3716 36.0551 63.0599 36.0917 62.747 36.096C62.3882 36.1154 62.0305 36.0424 61.708 35.884C61.4782 35.7605 61.2954 35.5648 61.188 35.327C61.0575 34.8544 61.0068 34.3633 61.038 33.874V29.7H60.138V28.74H61.038V26.94L62.262 26.202V28.74H63.5V29.7H62.262V33.945C62.2475 34.1727 62.2695 34.4012 62.327 34.622C62.3704 34.7222 62.4447 34.806 62.539 34.861C62.6686 34.9275 62.8136 34.9582 62.959 34.95C63.1403 34.9456 63.321 34.9289 63.5 34.9H63.499ZM69.672 33.663L70.943 33.82C70.7793 34.5063 70.3863 35.1162 69.829 35.549C69.1297 36.0053 68.2989 36.2169 67.4666 36.1507C66.6342 36.0845 65.8473 35.7442 65.229 35.183C64.5691 34.4239 64.234 33.4359 64.296 32.432C64.2312 31.3978 64.5691 30.3786 65.239 29.588C65.5507 29.2541 65.9305 28.991 66.3526 28.8164C66.7748 28.6418 67.2295 28.5598 67.686 28.576C68.1304 28.5609 68.5729 28.6416 68.9834 28.8126C69.3938 28.9836 69.7627 29.2409 70.065 29.567C70.7209 30.3428 71.0516 31.3421 70.988 32.356C70.988 32.4287 70.9857 32.538 70.981 32.684H65.563C65.5606 33.3563 65.801 34.0069 66.24 34.516C66.434 34.7229 66.6695 34.8865 66.9311 34.9961C67.1927 35.1057 67.4745 35.1589 67.758 35.152C68.1715 35.1638 68.5775 35.039 68.913 34.797C69.2723 34.5017 69.5364 34.1069 69.672 33.662V33.663ZM65.632 31.674H69.686C69.6727 31.1797 69.5106 30.7008 69.221 30.3C69.0393 30.0717 68.8071 29.8886 68.5426 29.7652C68.2782 29.6419 67.9887 29.5815 67.697 29.589C67.4335 29.5826 67.1715 29.6295 66.9266 29.7269C66.6817 29.8244 66.459 29.9703 66.272 30.156C65.8743 30.5624 65.6456 31.1046 65.632 31.673V31.674ZM72.475 36V28.74H73.582V29.84C73.7663 29.4478 74.0335 29.1001 74.365 28.821C74.5966 28.6593 74.8726 28.5734 75.155 28.575C75.6059 28.5868 76.0443 28.7255 76.42 28.975L76 30.114C75.7297 29.9452 75.4186 29.8529 75.1 29.847C74.838 29.8447 74.5827 29.9302 74.375 30.09C74.155 30.2602 73.9946 30.4959 73.917 30.763C73.7762 31.2285 73.7071 31.7127 73.712 32.199V36H72.475ZM36.306 60V49.979H37.632V60H36.306ZM39.813 60V52.74H40.92V53.772C41.1664 53.3872 41.5096 53.0738 41.9152 52.8632C42.3207 52.6526 42.7745 52.5522 43.231 52.572C43.6452 52.5674 44.056 52.6477 44.438 52.808C44.7645 52.9345 45.0496 53.1487 45.262 53.427C45.4519 53.6999 45.5824 54.0095 45.645 54.336C45.7018 54.7333 45.7246 55.1348 45.713 55.536V60H44.481V55.584C44.498 55.2035 44.4493 54.8229 44.337 54.459C44.2398 54.2086 44.0603 53.9988 43.828 53.864C43.5682 53.7117 43.2711 53.6348 42.97 53.642C42.471 53.633 41.9868 53.8114 41.613 54.142C41.392 54.4011 41.2272 54.7031 41.1289 55.0291C41.0306 55.3551 41.001 55.698 41.042 56.036V60H39.813ZM47.107 57.833L48.324 57.642C48.364 58.0749 48.5683 58.4761 48.895 58.763C49.2716 59.0434 49.7353 59.1816 50.204 59.153C50.6507 59.1881 51.0957 59.0661 51.462 58.808C51.5876 58.7132 51.6898 58.5909 51.7609 58.4505C51.8319 58.3101 51.8699 58.1553 51.872 57.998C51.8748 57.8665 51.8428 57.7365 51.7792 57.6213C51.7156 57.5061 51.6228 57.4098 51.51 57.342C51.1096 57.1513 50.687 57.0112 50.252 56.925C49.6109 56.782 48.9833 56.5843 48.376 56.334C48.0551 56.1913 47.7832 55.9573 47.5942 55.6613C47.4052 55.3653 47.3074 55.0202 47.313 54.669C47.3103 54.3551 47.3866 54.0456 47.535 53.769C47.6792 53.4967 47.8846 53.2615 48.135 53.082C48.3736 52.9186 48.6384 52.7971 48.918 52.723C49.2634 52.6229 49.6214 52.5734 49.981 52.576C50.4918 52.5661 51.0001 52.6495 51.481 52.822C51.857 52.947 52.1885 53.1788 52.435 53.489C52.6623 53.8257 52.8075 54.211 52.859 54.614L51.659 54.778C51.6214 54.4354 51.4508 54.1212 51.184 53.903C50.8603 53.6748 50.4683 53.564 50.073 53.589C49.6502 53.5524 49.2267 53.6504 48.863 53.869C48.7547 53.9415 48.6652 54.0389 48.6023 54.153C48.5393 54.2671 48.5046 54.3947 48.501 54.525C48.4998 54.6817 48.5528 54.8339 48.651 54.956C48.776 55.1058 48.939 55.2191 49.123 55.284C49.2463 55.3293 49.6087 55.434 50.21 55.598C50.8288 55.7498 51.4373 55.9405 52.032 56.169C52.3581 56.3027 52.6391 56.5268 52.842 56.815C53.0468 57.127 53.1495 57.495 53.136 57.868C53.135 58.2816 53.01 58.6853 52.777 59.027C52.5215 59.4027 52.1612 59.6952 51.741 59.868C51.2572 60.0737 50.7357 60.1758 50.21 60.168C49.4454 60.2199 48.6855 60.0128 48.053 59.58C47.5294 59.1371 47.1914 58.5135 47.106 57.833H47.107ZM57.285 58.9L57.463 59.987C57.1576 60.0551 56.8459 60.0917 56.533 60.096C56.1742 60.1154 55.8165 60.0424 55.494 59.884C55.2642 59.7605 55.0814 59.5648 54.974 59.327C54.8435 58.8544 54.7928 58.3633 54.824 57.874V53.7H53.924V52.74H54.824V50.94L56.048 50.202V52.74H57.285V53.7H56.048V57.945C56.0335 58.1727 56.0555 58.4012 56.113 58.622C56.1564 58.7222 56.2307 58.806 56.325 58.861C56.4546 58.9275 56.5996 58.9582 56.745 58.95C56.9259 58.9456 57.1063 58.9289 57.285 58.9ZM63.225 59.105C62.8361 59.4511 62.3911 59.7284 61.909 59.925C61.475 60.0867 61.0151 60.1677 60.552 60.164C59.8873 60.2084 59.2303 59.9998 58.713 59.58C58.5035 59.3928 58.3374 59.1621 58.2263 58.9041C58.1153 58.646 58.0619 58.3668 58.07 58.086C58.0663 57.7459 58.15 57.4105 58.313 57.112C58.4652 56.8285 58.6834 56.5857 58.949 56.404C59.2202 56.2233 59.5192 56.0882 59.834 56.004C60.1944 55.9194 60.5598 55.8576 60.928 55.819C61.6716 55.7509 62.4066 55.6088 63.122 55.395C63.1267 55.2263 63.129 55.1193 63.129 55.074C63.1492 54.8827 63.1286 54.6892 63.0684 54.5065C63.0083 54.3238 62.9099 54.1559 62.78 54.014C62.38 53.7086 61.882 53.5602 61.38 53.597C60.9319 53.562 60.484 53.6668 60.098 53.897C59.7769 54.1755 59.5609 54.5556 59.486 54.974L58.286 54.81C58.3675 54.358 58.5523 53.9308 58.826 53.562C59.1124 53.2209 59.4891 52.9676 59.913 52.831C60.4431 52.6512 61.0003 52.5646 61.56 52.575C62.0726 52.5586 62.5841 52.6327 63.071 52.794C63.3984 52.9004 63.6927 53.0899 63.925 53.344C64.1181 53.5881 64.2495 53.8753 64.308 54.181C64.3597 54.557 64.3805 54.9366 64.37 55.316V56.957C64.3512 57.6813 64.3776 58.406 64.449 59.127C64.5024 59.4332 64.6076 59.7281 64.76 59.999H63.472C63.3367 59.7165 63.2534 59.412 63.226 59.1L63.225 59.105ZM63.125 56.357C62.475 56.5883 61.8006 56.7443 61.115 56.822C60.7489 56.8612 60.3887 56.9438 60.042 57.068C59.8439 57.1498 59.675 57.2891 59.557 57.468C59.4181 57.6869 59.3618 57.9482 59.3985 58.2049C59.4352 58.4616 59.5623 58.6968 59.757 58.868C60.0678 59.1073 60.4557 59.224 60.847 59.196C61.2885 59.2042 61.7246 59.097 62.112 58.885C62.4656 58.6937 62.7501 58.396 62.925 58.034C63.0778 57.6427 63.146 57.2235 63.125 56.804V56.357ZM66.049 60.6L67.249 60.778C67.2595 60.9339 67.3019 61.086 67.3737 61.2248C67.4454 61.3637 67.5449 61.4863 67.666 61.585C68.035 61.8314 68.474 61.9515 68.917 61.927C69.3818 61.9555 69.8436 61.8357 70.236 61.585C70.5512 61.3494 70.7737 61.0108 70.865 60.628C70.9477 60.106 70.9775 59.577 70.954 59.049C70.7134 59.3499 70.4072 59.5919 70.0589 59.7565C69.7106 59.9211 69.3292 60.0041 68.944 59.999C68.4991 60.0209 68.0556 59.934 67.6518 59.7458C67.2481 59.5576 66.8963 59.2738 66.627 58.919C66.0712 58.1715 65.7825 57.2591 65.807 56.328C65.8002 55.67 65.9282 55.0177 66.183 54.411C66.4047 53.8611 66.7839 53.389 67.273 53.054C67.7711 52.7284 68.3561 52.5614 68.951 52.575C69.3611 52.5688 69.7669 52.6597 70.1352 52.8402C70.5035 53.0208 70.8238 53.2859 71.07 53.614V52.74H72.2V59.015C72.2509 59.8302 72.1335 60.6472 71.855 61.415C71.6179 61.8941 71.2348 62.2855 70.761 62.533C70.1914 62.8227 69.5577 62.9638 68.919 62.943C68.1745 62.9787 67.4382 62.7739 66.819 62.359C66.5517 62.1555 66.3407 61.8871 66.206 61.5793C66.0712 61.2715 66.0172 60.9345 66.049 60.6ZM67.068 56.239C67.0052 56.9791 67.206 57.7176 67.635 58.324C67.8107 58.5293 68.0288 58.694 68.2743 58.807C68.5198 58.92 68.7868 58.9785 69.057 58.9785C69.3272 58.9785 69.5942 58.92 69.8397 58.807C70.0852 58.694 70.3033 58.5293 70.479 58.324C70.9099 57.7327 71.1136 57.0061 71.053 56.277C71.1061 55.5575 70.896 54.8433 70.462 54.267C70.2901 54.0549 70.0729 53.884 69.8263 53.7669C69.5797 53.6497 69.31 53.5893 69.037 53.59C68.7692 53.5888 68.5047 53.6482 68.2631 53.7637C68.0215 53.8792 67.8092 54.0479 67.642 54.257C67.2185 54.8276 67.0145 55.5314 67.067 56.24L67.068 56.239ZM74.047 60V52.74H75.154V53.84C75.3383 53.4478 75.6055 53.1001 75.937 52.821C76.1686 52.6593 76.4446 52.5734 76.727 52.575C77.1779 52.5868 77.6163 52.7255 77.992 52.975L77.568 54.117C77.2977 53.9482 76.9866 53.8559 76.668 53.85C76.406 53.8477 76.1507 53.9332 75.943 54.093C75.723 54.2632 75.5626 54.4989 75.485 54.766C75.3442 55.2315 75.2751 55.7157 75.28 56.202V60H74.047ZM83.46 59.1C83.0711 59.4461 82.6261 59.7234 82.144 59.92C81.71 60.0817 81.2501 60.1627 80.787 60.159C80.1223 60.2034 79.4653 59.9948 78.948 59.575C78.7385 59.3878 78.5724 59.1571 78.4613 58.8991C78.3503 58.641 78.2969 58.3618 78.305 58.081C78.3013 57.7409 78.3849 57.4055 78.548 57.107C78.7002 56.8235 78.9184 56.5807 79.184 56.399C79.4552 56.2183 79.7542 56.0832 80.069 55.999C80.4294 55.9144 80.7948 55.8526 81.163 55.814C81.9066 55.7459 82.6416 55.6038 83.357 55.39C83.3617 55.2213 83.364 55.1143 83.364 55.069C83.3842 54.8777 83.3636 54.6842 83.3034 54.5015C83.2433 54.3188 83.1449 54.1509 83.015 54.009C82.615 53.7036 82.117 53.5552 81.615 53.592C81.1669 53.557 80.719 53.6618 80.333 53.892C80.0119 54.1705 79.7959 54.5506 79.721 54.969L78.521 54.805C78.6025 54.353 78.7873 53.9258 79.061 53.557C79.3474 53.2159 79.7241 52.9626 80.148 52.826C80.6781 52.6462 81.2353 52.5596 81.795 52.57C82.3076 52.5536 82.8191 52.6277 83.306 52.789C83.6334 52.8954 83.9277 53.0849 84.16 53.339C84.3531 53.5831 84.4845 53.8703 84.543 54.176C84.5947 54.552 84.6155 54.9316 84.605 55.311V56.952C84.5862 57.6763 84.6125 58.401 84.684 59.122C84.7374 59.4282 84.8426 59.7231 84.995 59.994H83.706C83.5713 59.7131 83.488 59.4103 83.46 59.1ZM83.36 56.352C82.71 56.5833 82.0356 56.7393 81.35 56.817C80.9839 56.8562 80.6237 56.9388 80.277 57.063C80.0789 57.1448 79.91 57.2841 79.792 57.463C79.6531 57.6819 79.5968 57.9433 79.6335 58.1999C79.6702 58.4566 79.7973 58.6918 79.992 58.863C80.3028 59.1023 80.6908 59.219 81.082 59.191C81.5235 59.1992 81.9596 59.092 82.347 58.88C82.7006 58.6887 82.9851 58.391 83.16 58.029C83.3128 57.6377 83.381 57.2185 83.36 56.799V56.352ZM86.509 60V52.74H87.609V53.759C87.8373 53.403 88.1495 53.1084 88.518 52.901C88.9123 52.6803 89.3582 52.5681 89.81 52.576C90.2742 52.5566 90.734 52.673 91.133 52.911C91.475 53.1317 91.7317 53.4621 91.861 53.848C92.0921 53.4602 92.4199 53.1391 92.8124 52.9161C93.2049 52.6931 93.6486 52.5759 94.1 52.576C94.4032 52.5564 94.7072 52.5996 94.993 52.7029C95.2788 52.8061 95.5403 52.9672 95.761 53.176C96.1881 53.6904 96.3967 54.3516 96.342 55.018V60H95.122V55.427C95.1383 55.0684 95.0971 54.7096 95 54.364C94.9187 54.1456 94.7657 53.9612 94.566 53.841C94.3443 53.7049 94.0881 53.6354 93.828 53.641C93.5926 53.6342 93.3583 53.6759 93.1396 53.7634C92.921 53.851 92.7227 53.9826 92.557 54.15C92.1801 54.6054 91.9983 55.1912 92.051 55.78V60H90.821V55.283C90.8516 54.8518 90.7467 54.4217 90.521 54.053C90.4029 53.9096 90.2514 53.7972 90.0799 53.7258C89.9084 53.6543 89.722 53.6259 89.537 53.643C89.1976 53.641 88.8646 53.7357 88.577 53.916C88.2796 54.1026 88.0543 54.3847 87.938 54.716C87.7851 55.2069 87.7175 55.7203 87.738 56.234V60H86.509Z" fill="black"/>
<path fill-rule="evenodd" clip-rule="evenodd" d="M5.744 14.9999V8.62194H7.922L8.233 6.13294H5.744V4.57794C5.744 3.87794 5.977 3.33394 6.988 3.33394H8.31V1.07794C8 1.07794 7.222 0.99994 6.367 0.99994C5.93393 0.970784 5.49971 1.03595 5.09428 1.19093C4.68885 1.34591 4.32188 1.58703 4.01869 1.89763C3.71551 2.20823 3.48333 2.58092 3.33819 2.98997C3.19305 3.39903 3.13839 3.83471 3.178 4.26694V6.13294H1V8.62194H3.178V14.9999H5.744Z" fill="#ED165F"/>
<path fill-rule="evenodd" clip-rule="evenodd" d="M5.433 37.3561C6.50822 37.3658 7.5746 37.1612 8.56987 36.7543C9.56513 36.3473 10.4693 35.7461 11.2297 34.9858C11.99 34.2254 12.5912 33.3212 12.9982 32.326C13.4051 31.3307 13.6097 30.2643 13.6 29.1891V28.8001C14.1434 28.3863 14.6162 27.8872 15 27.3221C14.4786 27.549 13.9295 27.706 13.367 27.7891C13.9454 27.4257 14.3838 26.8773 14.611 26.2331C14.049 26.546 13.4472 26.7815 12.822 26.9331C12.5588 26.6368 12.2352 26.4002 11.873 26.2393C11.5108 26.0784 11.1183 25.9968 10.722 26.0001C9.96225 26.0115 9.2368 26.3183 8.69951 26.8556C8.16222 27.3929 7.85536 28.1183 7.844 28.8781C7.82638 29.0886 7.85295 29.3005 7.922 29.5001C6.77752 29.4449 5.65805 29.1457 4.63861 28.6226C3.61917 28.0995 2.72329 27.3646 2.011 26.4671C1.75501 26.9176 1.62093 27.427 1.622 27.9451C1.63228 28.4151 1.74967 28.8766 1.96524 29.2944C2.18082 29.7122 2.48889 30.0753 2.866 30.3561C2.39853 30.3466 1.9421 30.2123 1.544 29.9671C1.54327 30.6332 1.77644 31.2784 2.20282 31.7901C2.6292 32.3018 3.22172 32.6476 3.877 32.7671C3.62367 32.8354 3.36085 32.8618 3.099 32.8451C2.91421 32.8574 2.72888 32.8309 2.555 32.7671C2.74529 33.3434 3.10887 33.8469 3.59606 34.2088C4.08325 34.5707 4.6703 34.7734 5.277 34.7891C4.25478 35.5874 2.997 36.0249 1.7 36.0331C1.46397 36.0457 1.22747 36.0193 1 35.9551C2.28698 36.8897 3.84269 37.381 5.433 37.3551" fill="#ED165F"/>
<path fill-rule="evenodd" clip-rule="evenodd" d="M7.99999 50.2439C8.93403 50.2089 9.86935 50.235 10.8 50.3219C11.2514 50.3162 11.6998 50.3952 12.122 50.5549C12.7044 50.8264 13.1725 51.2945 13.444 51.8769C13.6042 52.2994 13.6835 52.7481 13.678 53.1999C13.678 53.8999 13.756 54.1329 13.756 55.9999C13.791 56.9339 13.7649 57.8693 13.678 58.7999C13.6837 59.2513 13.6047 59.6997 13.445 60.1219C13.1735 60.7043 12.7054 61.1724 12.123 61.4439C11.7008 61.6036 11.2524 61.6826 10.801 61.6769C10.101 61.6769 9.86799 61.7549 8.00099 61.7549C7.06696 61.7899 6.13163 61.7638 5.20099 61.6769C4.74963 61.6826 4.3012 61.6036 3.87899 61.4439C3.29657 61.1724 2.82847 60.7043 2.55699 60.1219C2.39661 59.6998 2.31689 59.2514 2.32199 58.7999C2.32199 58.0999 2.24399 57.8669 2.24399 55.9999C2.209 55.0659 2.23505 54.1305 2.32199 53.1999C2.31625 52.7485 2.39529 52.3001 2.55499 51.8779C2.6909 51.5894 2.87524 51.3262 3.09999 51.0999C3.28254 50.828 3.55997 50.634 3.87799 50.5559C4.30013 50.3959 4.74856 50.3165 5.19999 50.3219C6.13063 50.235 7.06596 50.2089 7.99999 50.2439ZM7.99999 48.9999C7.03997 48.9657 6.07875 48.9918 5.12199 49.0779C4.53748 49.0765 3.95763 49.1819 3.41099 49.3889C2.93911 49.543 2.51205 49.81 2.16699 50.1669C1.81014 50.512 1.54305 50.939 1.38899 51.4109C1.14483 51.9466 1.03795 52.5346 1.07799 53.1219C0.991866 54.0787 0.965815 55.0399 0.999992 55.9999C0.965815 56.9599 0.991866 57.9211 1.07799 58.8779C1.07662 59.4624 1.18201 60.0423 1.38899 60.5889C1.54305 61.0608 1.81014 61.4878 2.16699 61.8329C2.51205 62.1898 2.93911 62.4568 3.41099 62.6109C3.95763 62.8179 4.53748 62.9233 5.12199 62.9219C6.07875 63.008 7.03997 63.0341 7.99999 62.9999C8.96001 63.0341 9.92123 63.008 10.878 62.9219C11.4625 62.9233 12.0424 62.8179 12.589 62.6109C13.0574 62.4495 13.4829 62.1835 13.8333 61.8332C14.1836 61.4829 14.4496 61.0573 14.611 60.5889C14.818 60.0423 14.9234 59.4624 14.922 58.8779C14.922 58.0999 15 57.8669 15 55.9999C15.0342 55.0399 15.0081 54.0787 14.922 53.1219C14.9234 52.5374 14.818 51.9575 14.611 51.4109C14.4569 50.939 14.1898 50.512 13.833 50.1669C13.4879 49.81 13.0609 49.543 12.589 49.3889C12.0424 49.1819 11.4625 49.0765 10.878 49.0779C9.92123 48.9918 8.96001 48.9657 7.99999 48.9999ZM7.99999 52.4219C7.52796 52.4141 7.05917 52.5012 6.62153 52.6783C6.18388 52.8553 5.78631 53.1186 5.45249 53.4524C5.11867 53.7862 4.85541 54.1838 4.67837 54.6214C4.50134 55.0591 4.41415 55.5279 4.42199 55.9999C4.42199 56.7076 4.63184 57.3993 5.02499 57.9877C5.41815 58.5761 5.97696 59.0347 6.63075 59.3055C7.28454 59.5764 8.00396 59.6472 8.69803 59.5092C9.39209 59.3711 10.0296 59.0303 10.53 58.5299C11.0304 58.0295 11.3712 57.392 11.5092 56.6979C11.6473 56.0039 11.5764 55.2845 11.3056 54.6307C11.0348 53.9769 10.5762 53.4181 9.98782 53.0249C9.39942 52.6317 8.70765 52.4219 7.99999 52.4219ZM7.99999 58.3329C7.69209 58.3385 7.38622 58.2819 7.10066 58.1666C6.81509 58.0514 6.55569 57.8797 6.33793 57.662C6.12017 57.4442 5.94853 57.1848 5.83326 56.8992C5.71798 56.6137 5.66143 56.3078 5.66699 55.9999C5.66143 55.692 5.71798 55.3861 5.83326 55.1006C5.94853 54.815 6.12017 54.5556 6.33793 54.3378C6.55569 54.1201 6.81509 53.9484 7.10066 53.8332C7.38622 53.7179 7.69209 53.6613 7.99999 53.6669C8.3079 53.6613 8.61376 53.7179 8.89933 53.8332C9.18489 53.9484 9.4443 54.1201 9.66206 54.3378C9.87981 54.5556 10.0515 54.815 10.1667 55.1006C10.282 55.3861 10.3386 55.692 10.333 55.9999C10.3386 56.3078 10.282 56.6137 10.1667 56.8992C10.0515 57.1848 9.87981 57.4442 9.66206 57.662C9.4443 57.8797 9.18489 58.0514 8.89933 58.1666C8.61376 58.2819 8.3079 58.3385 7.99999 58.3329ZM11.733 51.4109C11.5637 51.4109 11.3982 51.4611 11.2574 51.5552C11.1167 51.6492 11.0069 51.7829 10.9422 51.9393C10.8774 52.0957 10.8604 52.2679 10.8934 52.4339C10.9265 52.5999 11.008 52.7525 11.1277 52.8722C11.2474 52.9919 11.3999 53.0734 11.566 53.1065C11.732 53.1395 11.9042 53.1225 12.0606 53.0577C12.217 52.993 12.3507 52.8832 12.4447 52.7425C12.5388 52.6017 12.589 52.4362 12.589 52.2669C12.5872 52.0404 12.4964 51.8238 12.3363 51.6636C12.1761 51.5035 11.9595 51.4127 11.733 51.4109Z" fill="#ED165F"/>
</svg>
