<svg width="14.000000" height="11.356445" viewBox="0 0 14 11.3564" fill="none" xmlns="http://www.w3.org/2000/svg" xmlns:xlink="http://www.w3.org/1999/xlink">
	<desc>
			Created with Pixso.
	</desc>
	<defs/>
	<path id="Path 39" d="M4.43298 11.3562C5.50818 11.3657 6.57458 11.1611 7.56982 10.7542C8.56519 10.3472 9.46936 9.74609 10.2296 8.98584C10.99 8.22534 11.5912 7.32129 11.9982 6.32593C12.4052 5.33081 12.6097 4.2644 12.6 3.18921L12.6 2.80005C13.1434 2.38623 13.6162 1.88721 14 1.32202C13.4786 1.54907 12.9296 1.70605 12.3669 1.78906C12.9454 1.42578 13.3838 0.877197 13.611 0.233154C13.049 0.546143 12.4471 0.781494 11.822 0.933105C11.5588 0.636719 11.2352 0.400146 10.873 0.239258C10.5107 0.0783691 10.1183 -0.00317383 9.72205 0C8.96228 0.0114746 8.23682 0.318359 7.69946 0.855713C7.16223 1.39282 6.85535 2.11841 6.84399 2.87817C6.82642 3.08862 6.85291 3.30054 6.922 3.5C5.77747 3.44482 4.65808 3.14575 3.63867 2.62256C2.61914 2.09961 1.72327 1.3645 1.01099 0.467041C0.755005 0.91748 0.620972 1.427 0.621948 1.94507C0.632324 2.41504 0.749634 2.87671 0.96521 3.29443C1.18079 3.71216 1.48889 4.07544 1.86597 4.3562C1.39856 4.34668 0.942139 4.2124 0.543945 3.96704C0.543213 4.6333 0.776489 5.27832 1.20276 5.79004C1.62915 6.30176 2.22168 6.64771 2.87695 6.76709C2.62366 6.83545 2.36084 6.86182 2.099 6.84521C1.91418 6.85742 1.72888 6.83081 1.55505 6.76709C1.74524 7.34351 2.10889 7.84692 2.59607 8.20874C3.08325 8.5708 3.67029 8.77344 4.27698 8.78906C3.25476 9.5874 1.99695 10.0249 0.699951 10.0332C0.463989 10.0457 0.227417 10.0193 0 9.95508C1.28699 10.8896 2.84265 11.3811 4.43298 11.355L4.43298 11.3562Z" fill="#ED165F" fill-opacity="1.000000" fill-rule="evenodd"/>
</svg>
