<svg width="18" height="16" viewBox="0 0 18 16" fill="none" xmlns="http://www.w3.org/2000/svg">
<path d="M9.086 0C10.1682 0 11.2061 0.421427 11.9714 1.17157C12.7366 1.92172 13.1666 2.93913 13.1666 4C13.1666 5.06087 12.7366 6.07828 11.9714 6.82843C11.2061 7.57857 10.1682 8 9.086 8C8.00377 8 6.96586 7.57857 6.2006 6.82843C5.43535 6.07828 5.00543 5.06087 5.00543 4C5.00543 2.93913 5.43535 1.92172 6.2006 1.17157C6.96586 0.421427 8.00377 0 9.086 0ZM9.086 10C13.595 10 17.2471 11.79 17.2471 14V16H0.924866V14C0.924866 11.79 4.57697 10 9.086 10Z" fill="black"/>
</svg>
