<svg width="18" height="16" viewBox="0 0 18 16" fill="none" xmlns="http://www.w3.org/2000/svg">
<path d="M13.9092 12.8C13.0033 12.8 12.277 13.512 12.277 14.4C12.277 14.8243 12.4489 15.2313 12.755 15.5314C13.0611 15.8314 13.4763 16 13.9092 16C14.3421 16 14.7572 15.8314 15.0634 15.5314C15.3695 15.2313 15.5414 14.8243 15.5414 14.4C15.5414 13.9757 15.3695 13.5687 15.0634 13.2686C14.7572 12.9686 14.3421 12.8 13.9092 12.8ZM0.851379 0V1.6H2.48361L5.42161 7.672L4.3117 9.632C4.18928 9.856 4.11583 10.12 4.11583 10.4C4.11583 10.8243 4.2878 11.2313 4.5939 11.5314C4.9 11.8314 5.31517 12 5.74806 12H15.5414V10.4H6.09083C6.03672 10.4 5.98482 10.3789 5.94656 10.3414C5.90829 10.3039 5.8868 10.253 5.8868 10.2C5.8868 10.16 5.89496 10.128 5.91128 10.104L6.64578 8.8H12.7258C13.3379 8.8 13.8765 8.464 14.154 7.976L17.0757 2.8C17.1328 2.672 17.1736 2.536 17.1736 2.4C17.1736 2.18783 17.0877 1.98434 16.9346 1.83431C16.7816 1.68429 16.574 1.6 16.3575 1.6H4.28722L3.52007 0H0.851379ZM5.74806 12.8C4.84217 12.8 4.11583 13.512 4.11583 14.4C4.11583 14.8243 4.2878 15.2313 4.5939 15.5314C4.9 15.8314 5.31517 16 5.74806 16C6.18095 16 6.59612 15.8314 6.90222 15.5314C7.20832 15.2313 7.38029 14.8243 7.38029 14.4C7.38029 13.9757 7.20832 13.5687 6.90222 13.2686C6.59612 12.9686 6.18095 12.8 5.74806 12.8Z" fill="black"/>
</svg>
