<svg width="7.310059" height="14.006836" viewBox="0 0 7.31006 14.0068" fill="none" xmlns="http://www.w3.org/2000/svg" xmlns:xlink="http://www.w3.org/1999/xlink">
	<desc>
			Created with Pixso.
	</desc>
	<defs/>
	<path id="Path 38" d="M4.74402 14.0068L4.74402 7.62866L6.922 7.62866L7.23303 5.13989L4.74402 5.13989L4.74402 3.58472C4.74402 2.88477 4.97705 2.34082 5.98804 2.34082L7.31006 2.34082L7.31006 0.0847168C7 0.0847168 6.22205 0.00683594 5.36694 0.00683594C4.93396 -0.0224609 4.49976 0.0427246 4.09424 0.197754C3.68884 0.352783 3.3219 0.59375 3.01868 0.904541C2.71545 1.21509 2.48328 1.58765 2.33813 1.99683C2.19299 2.40576 2.13843 2.84155 2.17798 3.27368L2.17798 5.13989L0 5.13989L0 7.62866L2.17798 7.62866L2.17798 14.0068L4.74402 14.0068Z" fill="#ED165F" fill-opacity="1.000000" fill-rule="evenodd"/>
</svg>
