<svg width="73" height="41" viewBox="0 0 73 41" fill="none" xmlns="http://www.w3.org/2000/svg">
<path d="M10.6645 6.6074C10.0741 6.3166 6.39633 9.01453 6.0869 9.28307C4.72709 10.4616 2.88184 12.2217 4.44605 13.5658C6.03864 14.935 8.63902 15.3941 10.5907 16.4725C12.6319 17.5995 10.8292 19.7005 9.8796 20.9305C7.49213 24.0236 5.41551 27.3213 3.64123 30.5535C3.16715 31.4162 -0.242305 40.2808 1.1104 40.349C0.315528 40.3086 3.81724 32.6267 4.13377 32.1258C6.37504 28.593 9.50203 25.2745 12.717 22.0158C14.0158 20.6996 15.3543 19.0104 14.9597 17.4451C14.5552 15.8422 11.942 15.0115 9.75327 14.2699C6.86332 13.2903 5.27925 12.7477 6.79377 10.7287C7.12592 10.2877 10.9498 6.74654 10.6645 6.6074Z" fill="#ED165F"/>
<path d="M8.13085 2.47213C8.21176 2.43735 8.25434 2.27733 8.29976 2.1048C8.34518 1.93227 8.39344 1.74999 8.48571 1.67068C8.73694 1.45501 8.95979 1.37292 9.194 1.36457C9.4282 1.35622 9.67518 1.42023 9.97184 1.49536C10.287 1.57467 10.551 1.7166 10.8221 1.85296C11.0932 1.98931 11.3728 2.12289 11.7177 2.1855C12.0541 2.24672 12.3536 2.24533 12.6517 2.22864C12.9498 2.21333 13.2465 2.18272 13.5772 2.18411C14.0768 2.18689 14.6545 2.2175 15.1102 2.37891C15.5658 2.54031 15.8994 2.8339 15.9093 3.36541C15.9206 3.96928 15.519 4.20026 15.0477 4.3714C14.5765 4.54254 14.0371 4.65107 13.7773 5.01006C13.7546 5.04067 14.3919 5.50261 15.0619 5.97569C15.7333 6.44877 16.4387 6.93437 16.5537 7.0109C17.1925 7.43249 17.8582 7.77617 18.5721 8.04193C19.2847 8.30769 20.0441 8.49553 20.8673 8.60545C21.6338 8.70702 22.2513 8.79607 23.0745 8.68337C23.5231 8.62215 24.3463 8.50109 25.0688 8.01271C25.391 7.79565 25.6536 7.52989 25.8552 7.32814C26.3406 6.84115 26.5379 6.50303 26.5862 6.52112C26.643 6.54339 26.4386 7.0596 26.0681 7.56607C25.9361 7.74556 25.6565 8.1282 25.2051 8.45796C24.3804 9.05905 23.401 9.1801 22.5948 9.27889C21.4209 9.4236 20.4415 9.32898 19.8241 9.23715C18.619 9.06044 17.4352 8.84199 15.0151 7.49093C13.519 6.65609 12.0698 5.72106 10.4828 5.14641C9.82564 4.90848 7.84271 4.24339 6.15217 3.4002C4.46164 2.55701 3.06209 1.53572 3.57024 0.585385C4.14795 -0.495737 4.98825 0.103959 5.83422 0.910974C6.67878 1.71799 7.53043 2.72954 8.13085 2.47213Z" fill="#ED165F"/>
<path d="M26.0426 17.4812C26.2697 17.4812 26.4571 17.5271 26.6019 17.6203C26.7466 17.7135 26.8588 17.8193 26.934 17.9361C27.0092 18.0544 27.0575 18.1783 27.0759 18.3077C27.0944 18.4384 27.0972 18.547 27.0859 18.6332C27.0348 18.8684 26.9212 19.1661 26.7438 19.5265C26.5664 19.8869 26.3606 20.2834 26.1263 20.7176C25.8921 21.1517 25.6352 21.6136 25.357 22.1034C25.0788 22.5932 24.8134 23.0746 24.5593 23.5449C24.3066 24.0166 24.0781 24.4758 23.8766 24.921C23.6736 25.3676 23.5288 25.7642 23.4394 26.112C23.3642 26.3973 23.3727 26.5559 23.4678 26.5865C23.5629 26.6171 23.736 26.5462 23.9901 26.3722C24.433 26.087 24.9014 25.7113 25.3939 25.2466C25.8879 24.7819 26.3776 24.2851 26.8644 23.7578C27.3513 23.2304 27.8197 22.6975 28.2683 22.1577C28.7168 21.6178 29.1157 21.128 29.4634 20.6883C29.8112 20.2487 30.0993 19.8827 30.3264 19.5905C30.5535 19.2997 30.687 19.1411 30.7253 19.1161C30.7764 19.0785 30.8488 19.0604 30.9439 19.0604C31.039 19.0604 31.127 19.0827 31.2093 19.1258C31.2916 19.1689 31.3541 19.2288 31.3995 19.3025C31.4435 19.3763 31.4407 19.4695 31.3896 19.5822C31.3512 19.6559 31.232 19.8521 31.029 20.168C30.8261 20.4838 30.5549 20.8776 30.2129 21.3493C29.8708 21.821 29.4733 22.3413 29.0177 22.9118C28.5621 23.4823 28.071 24.0653 27.5472 24.6608C27.022 25.2563 26.4684 25.8365 25.8865 26.4001C25.3045 26.965 24.7154 27.4701 24.1207 27.9167C24.0199 27.9793 23.8709 28.0753 23.675 28.2047C23.4791 28.3355 23.2478 28.4593 22.9823 28.5762C22.7169 28.6945 22.4316 28.7863 22.1278 28.8559C21.8241 28.9241 21.5274 28.9394 21.2364 28.9018C21.0079 28.8643 20.8276 28.778 20.6956 28.6416C20.5622 28.5053 20.4714 28.3258 20.4203 28.1018C20.3692 27.8791 20.3564 27.6217 20.3819 27.3295C20.4075 27.0387 20.4586 26.7243 20.5338 26.3903C20.2556 26.6756 19.9135 26.9636 19.509 27.2558C19.1045 27.548 18.6829 27.8082 18.2471 28.0378C17.81 28.2673 17.387 28.4593 16.9753 28.6152C16.5637 28.771 16.2131 28.8545 15.9221 28.8656C15.4665 28.8782 15.0747 28.8155 14.7454 28.6792C14.4161 28.5428 14.1478 28.3606 13.9392 28.131C13.7305 27.9014 13.5787 27.644 13.4836 27.3587C13.3885 27.0735 13.3416 26.7883 13.3416 26.503C13.3416 26.1065 13.4055 25.6501 13.5318 25.1353C13.6581 24.6205 13.8455 24.0876 14.0911 23.5352C14.338 22.9842 14.6475 22.4373 15.0208 21.8975C15.3941 21.3576 15.8299 20.8553 16.3309 20.3906C16.8305 19.9259 17.3898 19.5224 18.0101 19.1815C18.6304 18.8406 19.3202 18.6012 20.0796 18.4649C20.548 18.3786 20.9653 18.3536 21.3315 18.3911C21.6992 18.4287 22.0171 18.5122 22.2896 18.6416C22.5622 18.7724 22.7864 18.9421 22.9639 19.1536C23.1413 19.3651 23.2733 19.5877 23.3627 19.8229C23.5146 19.5377 23.6509 19.29 23.7715 19.0785C23.8922 18.8684 23.9901 18.707 24.0653 18.5943C24.2669 18.2478 24.477 17.996 24.6913 17.8401C24.9056 17.6857 25.1058 17.5799 25.2889 17.5243C25.472 17.4686 25.631 17.4464 25.763 17.4589C25.9007 17.4742 25.9929 17.4812 26.0426 17.4812ZM17.4068 27.2864C17.6212 27.2739 17.8965 27.1904 18.2329 27.0359C18.5679 26.8815 18.9157 26.67 19.2762 26.4029C19.6367 26.1357 19.9873 25.8254 20.3294 25.472C20.6715 25.1186 20.9625 24.7373 21.2024 24.3283C21.3926 23.8566 21.597 23.3793 21.8198 22.8951C22.0412 22.4109 22.2598 21.9462 22.4742 21.4995C22.5508 21.128 22.5565 20.8358 22.4926 20.6257C22.4288 20.4156 22.3379 20.2542 22.2173 20.1415C22.0966 20.0302 21.9618 19.9593 21.8085 19.9272C21.6566 19.8966 21.5359 19.8813 21.4479 19.8813C21.2208 19.8688 20.9483 19.9648 20.6318 20.1694C20.3152 20.3739 19.9802 20.6508 19.6254 20.9972C19.2705 21.3451 18.9171 21.7416 18.5622 22.1883C18.2074 22.6349 17.8852 23.0941 17.5942 23.5644C17.3032 24.0361 17.0562 24.498 16.8547 24.9502C16.6517 25.4024 16.5282 25.8032 16.4842 26.1496C16.4402 26.4975 16.4842 26.7757 16.6176 26.9872C16.7525 27.1987 17.0151 27.2989 17.4068 27.2864Z" fill="#ED165F"/>
<path d="M34.8686 13.0343C35.0702 13.0217 35.2448 13.0621 35.391 13.1553C35.5358 13.2485 35.6465 13.3696 35.7231 13.5185C35.7984 13.6674 35.831 13.8315 35.8182 14.011C35.8054 14.1905 35.7543 14.3547 35.6663 14.5036C35.1227 15.3593 34.5336 16.343 33.9006 17.452C33.2675 18.5623 32.6288 19.7492 31.9844 21.0154C32.7054 21.1142 33.4492 21.1893 34.2143 21.238C34.9793 21.2881 35.6947 21.2811 36.359 21.2199C37.0233 21.1587 37.6024 21.0251 38.0964 20.8206C38.5904 20.616 38.931 20.3085 39.1212 19.8995C39.2348 19.6643 39.3767 19.5085 39.5485 19.4347C39.7188 19.361 39.8735 19.3513 40.014 19.4069C40.1531 19.4626 40.2582 19.5655 40.3277 19.7144C40.3973 19.8633 40.3944 20.0372 40.3178 20.2348C40.0893 20.7802 39.7614 21.2241 39.3313 21.565C38.9012 21.9059 38.4172 22.173 37.8792 22.365C37.3413 22.557 36.765 22.6851 36.1518 22.7463C35.5386 22.8089 34.9311 22.8298 34.3293 22.8117C33.7274 22.7936 33.1625 22.7505 32.6302 22.6809C32.0993 22.6127 31.6366 22.5417 31.2448 22.4666C31.1427 22.6781 31.0461 22.8854 30.951 23.09C30.8559 23.2945 30.758 23.5018 30.6572 23.7133C30.7835 24.185 30.9198 24.7429 31.066 25.3872C31.2108 26.0328 31.3286 26.7396 31.4166 27.5077C31.5046 28.2771 31.5557 29.0897 31.5685 29.9454C31.5813 30.8011 31.5245 31.6763 31.3981 32.5682C31.2079 33.858 30.9553 34.9531 30.6388 35.8519C30.3222 36.7508 29.9745 37.4896 29.5955 38.0657C29.2165 38.6417 28.8233 39.0883 28.4188 39.4056C28.0142 39.7214 27.6282 39.951 27.2605 40.0943C26.8929 40.2363 26.5622 40.317 26.2641 40.3364C25.9674 40.3545 25.7361 40.3517 25.5714 40.3267C25.0647 40.253 24.6218 40.0595 24.2428 39.7507C23.8639 39.4404 23.5601 39.0438 23.3316 38.5596C23.1045 38.0754 22.9583 37.5244 22.8944 36.9038C22.8319 36.2833 22.8632 35.6265 22.9895 34.9322C23.1414 34.1266 23.3813 33.2305 23.7106 32.244C24.0399 31.2575 24.4288 30.2251 24.8773 29.1467C25.3273 28.067 25.8113 26.9734 26.3294 25.863C26.8475 24.7527 27.3727 23.6771 27.905 22.635C27.4621 22.1508 27.0817 21.8975 26.7666 21.8725C26.565 21.86 26.4756 21.7695 26.5011 21.6025C26.5267 21.4356 26.6147 21.2519 26.7666 21.0543C26.9185 20.8554 27.0987 20.6731 27.3074 20.5061C27.516 20.3391 27.6963 20.2557 27.8482 20.2557C27.8737 20.2557 27.9901 20.2807 28.1988 20.3294C28.4074 20.3795 28.6757 20.4352 29.005 20.4964C29.384 19.7645 29.7488 19.0799 30.0965 18.4413C30.4443 17.8026 30.758 17.2349 31.0362 16.7382C31.3144 16.2429 31.5486 15.8268 31.7388 15.4915C31.929 15.1562 32.0553 14.9335 32.1178 14.8222C32.2824 14.5245 32.4911 14.2671 32.7438 14.05C32.9964 13.8329 33.259 13.6534 33.5315 13.5101C33.8041 13.3682 34.0596 13.2597 34.2994 13.1845C34.5393 13.1094 34.7295 13.0593 34.8686 13.0343ZM30.2938 32.1981C30.4202 30.9695 30.4145 29.823 30.2754 28.7558C30.1363 27.6886 29.9205 26.7215 29.6295 25.8533C29.1356 26.933 28.6643 27.9988 28.2158 29.0535C27.7658 30.1082 27.3684 31.1128 27.0207 32.0673C26.6729 33.0218 26.3819 33.9067 26.1477 34.7193C25.9135 35.5319 25.7559 36.2387 25.6736 36.8398C25.5913 37.4409 25.5984 37.9182 25.6921 38.2716C25.7872 38.625 25.993 38.8198 26.3095 38.8574C27.005 38.9325 27.5742 38.7711 28.0171 38.3746C28.4599 37.978 28.8233 37.4465 29.1086 36.7842C29.3939 36.1205 29.6239 35.383 29.8013 34.5704C29.9773 33.7579 30.142 32.9662 30.2938 32.1981Z" fill="#ED165F"/>
<path d="M47.774 17.4812C48.0011 17.4812 48.1885 17.5271 48.3333 17.6203C48.4781 17.7135 48.5902 17.8193 48.6654 17.9361C48.7407 18.0544 48.7889 18.1783 48.8074 18.3077C48.8258 18.4384 48.8287 18.547 48.8173 18.6332C48.7662 18.8684 48.6527 19.1661 48.4752 19.5265C48.2978 19.8869 48.092 20.2834 47.8578 20.7176C47.6236 21.1517 47.3667 21.6136 47.0884 22.1034C46.8102 22.5932 46.5448 23.0746 46.2907 23.5449C46.0381 24.0166 45.8095 24.4758 45.608 24.921C45.405 25.3676 45.2602 25.7642 45.1708 26.112C45.0956 26.3973 45.1041 26.5559 45.1992 26.5865C45.2943 26.6171 45.4675 26.5462 45.7215 26.3722C46.1644 26.087 46.6328 25.7113 47.1254 25.2466C47.6193 24.7819 48.109 24.2851 48.5959 23.7578C49.0827 23.2304 49.5512 22.6975 49.9997 22.1577C50.4482 21.6178 50.8471 21.128 51.1949 20.6883C51.5426 20.2487 51.8308 19.8827 52.0579 19.5905C52.285 19.2997 52.4184 19.1411 52.4567 19.1161C52.5078 19.0785 52.5802 19.0604 52.6753 19.0604C52.7704 19.0604 52.8584 19.0827 52.9407 19.1258C53.0231 19.1689 53.0855 19.2288 53.1309 19.3025C53.1749 19.3763 53.1721 19.4695 53.121 19.5822C53.0827 19.6559 52.9635 19.8521 52.7605 20.168C52.5575 20.4838 52.2864 20.8776 51.9443 21.3493C51.6022 21.821 51.2048 22.3413 50.7491 22.9118C50.2935 23.4823 49.8024 24.0653 49.2786 24.6608C48.7534 25.2563 48.1999 25.8365 47.6179 26.4001C47.0359 26.965 46.4469 27.4701 45.8521 27.9167C45.7513 27.9793 45.6023 28.0753 45.4064 28.2047C45.2105 28.3355 44.9792 28.4593 44.7137 28.5762C44.4483 28.6945 44.163 28.7863 43.8593 28.8559C43.5555 28.9241 43.2588 28.9394 42.9678 28.9018C42.7393 28.8643 42.5591 28.778 42.427 28.6416C42.2936 28.5053 42.2028 28.3258 42.1517 28.1018C42.1006 27.8791 42.0878 27.6217 42.1134 27.3295C42.1389 27.0387 42.19 26.7243 42.2652 26.3903C41.987 26.6756 41.6449 26.9636 41.2404 27.2558C40.8359 27.548 40.4143 27.8082 39.9785 28.0378C39.5414 28.2673 39.1184 28.4593 38.7067 28.6152C38.2951 28.771 37.9445 28.8545 37.6535 28.8656C37.1979 28.8782 36.8061 28.8155 36.4768 28.6792C36.1475 28.5428 35.8792 28.3606 35.6706 28.131C35.4619 27.9014 35.31 27.644 35.2149 27.3587C35.1198 27.0735 35.073 26.7883 35.073 26.503C35.073 26.1065 35.1369 25.6501 35.2632 25.1353C35.3895 24.6205 35.5769 24.0876 35.8225 23.5352C36.0694 22.9842 36.3789 22.4373 36.7522 21.8975C37.1255 21.3576 37.5613 20.8553 38.0623 20.3906C38.5619 19.9259 39.1212 19.5224 39.7415 19.1815C40.3618 18.8406 41.0516 18.6012 41.811 18.4649C42.2794 18.3786 42.6967 18.3536 43.063 18.3911C43.4306 18.4287 43.7485 18.5122 44.0211 18.6416C44.2936 18.7724 44.5179 18.9421 44.6953 19.1536C44.8727 19.3651 45.0047 19.5877 45.0942 19.8229C45.246 19.5377 45.3823 19.29 45.5029 19.0785C45.6236 18.8684 45.7215 18.707 45.7968 18.5943C45.9983 18.2478 46.2084 17.996 46.4227 17.8401C46.6371 17.6857 46.8372 17.5799 47.0203 17.5243C47.2034 17.4686 47.3624 17.4464 47.4944 17.4589C47.6321 17.4742 47.7244 17.4812 47.774 17.4812ZM39.1382 27.2864C39.3526 27.2739 39.6279 27.1904 39.9643 27.0359C40.2993 26.8815 40.6471 26.67 41.0076 26.4029C41.3682 26.1357 41.7188 25.8254 42.0608 25.472C42.4029 25.1186 42.6939 24.7373 42.9338 24.3283C43.124 23.8566 43.3284 23.3793 43.5512 22.8951C43.7727 22.4109 43.9913 21.9462 44.2056 21.4995C44.2822 21.128 44.2879 20.8358 44.224 20.6257C44.1602 20.4156 44.0693 20.2542 43.9487 20.1415C43.828 20.0302 43.6932 19.9593 43.5399 19.9272C43.388 19.8966 43.2674 19.8813 43.1793 19.8813C42.9522 19.8688 42.6797 19.9648 42.3632 20.1694C42.0466 20.3739 41.7117 20.6508 41.3568 20.9972C41.0019 21.3451 40.6485 21.7416 40.2936 22.1883C39.9388 22.6349 39.6166 23.0941 39.3256 23.5644C39.0346 24.0361 38.7876 24.498 38.5861 24.9502C38.3831 25.4024 38.2596 25.8032 38.2156 26.1496C38.1716 26.4975 38.2156 26.7757 38.349 26.9872C38.4839 27.1987 38.7465 27.2989 39.1382 27.2864Z" fill="#ED165F"/>
<path d="M52.6143 16.1232C52.8797 16.1107 53.0983 16.1663 53.2686 16.2902C53.439 16.414 53.5241 16.6185 53.5241 16.9038C53.5241 17.0401 53.4773 17.2321 53.3822 17.4812C53.2871 17.7289 53.1891 17.9779 53.0884 18.2256C52.9492 18.5108 52.803 18.8142 52.6512 19.137C52.7392 19.2733 52.9606 19.3387 53.3155 19.3318C53.6689 19.3262 54.0749 19.2859 54.5305 19.2107C54.9861 19.1356 55.4546 19.0563 55.9343 18.9686C56.4155 18.8823 56.8257 18.8267 57.1678 18.8016C57.4332 18.7891 57.6362 18.842 57.7753 18.9603C57.9144 19.0785 58.0095 19.2246 58.0606 19.3972C58.1117 19.5711 58.1203 19.7534 58.089 19.9454C58.0578 20.1374 57.9968 20.296 57.9088 20.4198C57.8577 20.4936 57.7313 20.7079 57.5298 21.0613C57.3268 21.4147 57.0968 21.8433 56.8371 22.3456C56.5773 22.8478 56.3176 23.3849 56.0592 23.9554C55.7995 24.5259 55.5937 25.056 55.4418 25.5458C55.2899 26.0356 55.2175 26.4544 55.2232 26.8022C55.2289 27.1501 55.3722 27.3421 55.6504 27.3797C55.8023 27.4047 56.0621 27.2934 56.4283 27.0443C56.7959 26.7967 57.2218 26.4613 57.71 26.0397C58.1969 25.6181 58.7122 25.1284 59.2572 24.5704C59.8009 24.0125 60.3303 23.442 60.8427 22.859C61.3552 22.276 61.8236 21.6999 62.2466 21.1281C62.671 20.5576 63.0031 20.0428 63.243 19.5836C63.3069 19.4598 63.4048 19.3763 63.5368 19.3318C63.6703 19.2886 63.8023 19.2859 63.9357 19.322C64.0691 19.3582 64.1756 19.4403 64.2579 19.5641C64.3402 19.688 64.3629 19.8619 64.3246 20.0845C64.3118 20.1471 64.2082 20.335 64.0109 20.6522C63.815 20.9681 63.5524 21.3618 63.2231 21.8335C62.8938 22.3052 62.5021 22.8284 62.0464 23.4058C61.5908 23.9832 61.1011 24.5621 60.5759 25.1451C60.0507 25.7281 59.4971 26.286 58.9151 26.8189C58.3332 27.3518 57.7441 27.8082 57.1494 28.1867C56.5546 28.5651 55.9627 28.8434 55.3751 29.0243C54.786 29.2038 54.2196 29.2316 53.676 29.1078C53.1565 28.984 52.7619 28.7794 52.4893 28.4942C52.2168 28.2089 52.0436 27.868 51.967 27.4715C51.8918 27.0749 51.8918 26.6408 51.967 26.1691C52.0422 25.6975 52.16 25.2272 52.3176 24.7555C52.4752 24.2838 52.6625 23.8218 52.8769 23.3696C53.0912 22.9174 53.3013 22.5111 53.5028 22.1508C53.7044 21.7918 53.879 21.4968 54.0252 21.2672C54.17 21.0376 54.2622 20.8985 54.3006 20.8484C54.4397 20.6745 54.4553 20.5451 54.3474 20.4574C54.2395 20.3711 54.0976 20.3586 53.9201 20.4198C53.7299 20.4936 53.4673 20.5562 53.1324 20.6063C52.7974 20.6564 52.461 20.6369 52.126 20.5506C51.791 20.4644 51.4957 20.2779 51.2431 19.9927C50.9904 19.7074 50.857 19.2678 50.8442 18.6722C50.8314 18.4858 50.8598 18.2506 50.9294 17.9654C50.9989 17.6802 51.1097 17.4047 51.2615 17.1375C51.4134 16.8704 51.5994 16.638 51.8208 16.4404C52.0479 16.2415 52.3105 16.1357 52.6143 16.1232Z" fill="#ED165F"/>
<path d="M64.8554 18.913C65.0839 18.9255 65.2727 18.9756 65.4246 19.0618C65.5765 19.1481 65.69 19.2538 65.7667 19.3777C65.8419 19.5015 65.8902 19.6281 65.9086 19.7589C65.9271 19.8897 65.9313 19.9983 65.9186 20.0845C65.8433 20.4198 65.6531 20.8693 65.3494 21.4328C65.0456 21.9977 64.7106 22.5988 64.343 23.2374C63.9754 23.8761 63.6248 24.5245 63.2898 25.1812C62.9548 25.8394 62.7178 26.4279 62.5787 26.9483C62.502 27.2336 62.5432 27.3824 62.7022 27.395C62.8597 27.4075 63.0655 27.3324 63.3196 27.1723C63.7497 26.8871 64.2493 26.5059 64.8185 26.0286C65.3877 25.5514 65.9697 25.0365 66.5644 24.4841C67.1591 23.9331 67.744 23.3766 68.3202 22.8186C68.8965 22.2607 69.4118 21.7486 69.8674 21.2839C70.323 20.8192 70.6992 20.4352 70.9973 20.1304C71.2939 19.8271 71.4628 19.6629 71.4998 19.6379C71.5508 19.6003 71.6232 19.5822 71.7183 19.5822C71.8134 19.5822 71.9014 19.6045 71.9838 19.6476C72.0661 19.6908 72.1286 19.7506 72.174 19.8243C72.218 19.8995 72.2151 19.9913 72.164 20.104C72.1257 20.1777 71.9682 20.3809 71.69 20.7093C71.4117 21.0376 71.0512 21.4481 70.6084 21.9379C70.1655 22.4276 69.6531 22.9731 69.0711 23.5756C68.4892 24.1766 67.8816 24.7819 67.2486 25.3899C66.6155 25.998 65.9697 26.5893 65.3125 27.1668C64.6539 27.7442 64.0279 28.2549 63.4332 28.7015C63.3452 28.7641 63.1989 28.8601 62.996 28.9895C62.793 29.1203 62.563 29.2441 62.3033 29.361C62.0435 29.4793 61.7625 29.5753 61.4587 29.649C61.155 29.7228 60.8512 29.7423 60.5475 29.7047C60.079 29.6421 59.7909 29.3916 59.6845 28.9506C59.5766 28.5109 59.5865 27.971 59.7128 27.3323C59.8392 26.6937 60.0507 25.9966 60.3487 25.2397C60.6454 24.4828 60.9591 23.7578 61.2884 23.0635C61.6177 22.3692 61.93 21.7486 62.2281 21.2032C62.5247 20.6578 62.7433 20.2668 62.8824 20.0316C63.0854 19.6963 63.2941 19.4486 63.5084 19.2872C63.7227 19.1258 63.9229 19.0173 64.106 18.9617C64.2891 18.906 64.448 18.8837 64.58 18.8963C64.7135 18.9074 64.8057 18.913 64.8554 18.913ZM65.1024 15.7879C65.216 15.5638 65.3522 15.3718 65.5098 15.2104C65.6673 15.049 65.8348 14.9252 66.0122 14.8389C66.1897 14.7527 66.3728 14.7026 66.563 14.69C66.7532 14.6775 66.9292 14.7081 67.0939 14.7833C67.2585 14.8695 67.3948 14.9906 67.5026 15.1464C67.6105 15.3023 67.6829 15.4748 67.7212 15.6668C67.7596 15.8588 67.7624 16.0675 67.7312 16.2902C67.6999 16.5142 67.6261 16.7368 67.5126 16.9594C67.399 17.1834 67.2628 17.3755 67.1052 17.5369C66.9462 17.6983 66.7787 17.8221 66.6027 17.9084C66.4253 17.9946 66.2422 18.0447 66.052 18.0572C65.8618 18.0698 65.6844 18.0392 65.5211 17.964C65.1918 17.8026 64.986 17.5118 64.9037 17.0888C64.8214 16.6686 64.8881 16.2345 65.1024 15.7879Z" fill="#ED165F"/>
</svg>
