<svg width="18" height="16" viewBox="0 0 18 16" fill="none" xmlns="http://www.w3.org/2000/svg">
<path d="M6.87989 0C8.48777 0 10.0298 0.62612 11.1667 1.74062C12.3037 2.85512 12.9424 4.36671 12.9424 5.94286C12.9424 7.41486 12.3921 8.768 11.4874 9.81029L11.7392 10.0571H12.4761L17.1395 14.6286L15.7405 16L11.077 11.4286V10.7063L10.8252 10.4594C9.72512 11.3799 8.32623 11.8856 6.87989 11.8857C5.27202 11.8857 3.72999 11.2596 2.59305 10.1451C1.45611 9.03059 0.817383 7.519 0.817383 5.94286C0.817383 4.36671 1.45611 2.85512 2.59305 1.74062C3.72999 0.62612 5.27202 0 6.87989 0ZM6.87989 1.82857C4.54816 1.82857 2.68277 3.65714 2.68277 5.94286C2.68277 8.22857 4.54816 10.0571 6.87989 10.0571C9.21163 10.0571 11.077 8.22857 11.077 5.94286C11.077 3.65714 9.21163 1.82857 6.87989 1.82857Z" fill="black"/>
</svg>
